<?xml version="1.0" encoding="utf-8"?>
<!-- Generator: Adobe Illustrator 27.5.0, SVG Export Plug-In . SVG Version: 6.00 Build 0)  -->
<svg version="1.1" id="레이어_1" xmlns="http://www.w3.org/2000/svg" xmlns:xlink="http://www.w3.org/1999/xlink" x="0px"
	 y="0px" viewBox="0 0 50 50" style="enable-background:new 0 0 50 50;" xml:space="preserve">
<path d="M35.8,25l-7-7l2.8-2.8l4.2,4.2l8.4-8.4l2.8,2.8L35.8,25z M18.9,25c-2.2,0-4-0.8-5.6-2.3c-1.6-1.6-2.3-3.4-2.3-5.6
	s0.8-4,2.3-5.6s3.4-2.3,5.6-2.3s4,0.8,5.6,2.3s2.3,3.4,2.3,5.6s-0.8,4-2.3,5.6C22.9,24.2,21,25,18.9,25z M3,40.8v-5.5
	c0-1.1,0.3-2.2,0.9-3.1s1.3-1.7,2.3-2.2c2-1,4.1-1.8,6.2-2.3s4.3-0.8,6.4-0.8s4.3,0.3,6.4,0.8c2.1,0.5,4.2,1.3,6.2,2.3
	c1,0.5,1.7,1.2,2.3,2.2s0.9,2,0.9,3.1v5.5H3z M7,36.9h23.8v-1.6c0-0.4-0.1-0.7-0.3-1s-0.4-0.5-0.7-0.7c-1.8-0.9-3.6-1.6-5.4-2
	c-1.8-0.4-3.6-0.7-5.5-0.7s-3.7,0.2-5.5,0.7c-1.8,0.4-3.6,1.1-5.4,2c-0.3,0.2-0.5,0.4-0.7,0.7S7,34.9,7,35.3V36.9z M18.9,21
	c1.1,0,2-0.4,2.8-1.2s1.2-1.7,1.2-2.8s-0.4-2-1.2-2.8s-1.7-1.2-2.8-1.2s-2,0.4-2.8,1.2s-1.2,1.7-1.2,2.8s0.4,2,1.2,2.8
	S17.8,21,18.9,21z"/>
</svg>
