<?xml version="1.0" encoding="utf-8"?>
<!-- Generator: Adobe Illustrator 27.5.0, SVG Export Plug-In . SVG Version: 6.00 Build 0)  -->
<svg version="1.1" id="레이어_1" xmlns="http://www.w3.org/2000/svg" xmlns:xlink="http://www.w3.org/1999/xlink" x="0px"
	 y="0px" viewBox="0 0 50 50" style="enable-background:new 0 0 50 50;" xml:space="preserve">
<path d="M8.5,43.5c-1.1,0-2.1-0.4-2.9-1.2c-0.8-0.8-1.2-1.8-1.2-2.9V10.6c0-1.1,0.4-2.1,1.2-2.9s1.8-1.2,2.9-1.2h32.9
	c1.1,0,2.1,0.4,2.9,1.2s1.2,1.8,1.2,2.9v28.8c0,1.1-0.4,2.1-1.2,2.9c-0.8,0.8-1.8,1.2-2.9,1.2H8.5z M8.5,39.4h32.9V10.6H8.5V39.4z
	 M10.6,35.3h10.3v-4.1H10.6V35.3z M30.2,31.2L40.4,21l-2.9-2.9l-7.2,7.3l-2.9-2.9l-2.9,2.9L30.2,31.2z M10.6,27.1h10.3v-4.1H10.6
	V27.1z M10.6,18.8h10.3v-4.1H10.6V18.8z M8.5,39.4V10.6V39.4z"/>
</svg>
